<svg xmlns:rdf="http://www.w3.org/1999/02/22-rdf-syntax-ns#" xmlns="http://www.w3.org/2000/svg" height="100" width="420" version="1.1" xmlns:cc="http://creativecommons.org/ns#" xmlns:dc="http://purl.org/dc/elements/1.1/">
	<metadata>
		<rdf:RDF>
			<cc:Work rdf:about="Assistance.net Logo">
				<dc:format>image/svg+xml</dc:format>
				<dc:type rdf:resource="http://purl.org/dc/dcmitype/StillImage"/>
				<dc:title/>
			</cc:Work>
		</rdf:RDF>
	</metadata>
	<path fill-rule="nonzero" fill="#ff7400" d="M47.75,0,13.43,82.836s-6.0173,14.179-13.43,17.164c13.43,0,19.398-5.9702,22.383-13.433l7.377-17.91h35.98l7.377,17.91c2.985,7.463,8.953,13.433,22.383,13.433-7.412-2.985-13.43-17.164-13.43-17.164l-34.32-82.836zm0,24.963,14.059,34.142-28.118,0l48.379-116.98z"/>

	<path d="m103.31,79.494c3.3316,0.000006,5.9779-0.70232,7.9389-2.107,1.9609-1.4046,2.9413-3.3152,2.9414-5.7317-0.00004-1.2421-0.17998-2.3367-0.53983-3.2838-0.35991-0.94704-1.0134-1.78-1.9604-2.4987-0.94709-0.71875-2.2376-1.3722-3.8715-1.9604-1.634-0.58815-3.725-1.2082-6.273-1.8602-2.3507-0.58815-4.4572-1.2905-6.3194-2.107-1.8622-0.81644-3.4628-1.8128-4.8016-2.9892-1.3389-1.1763-2.3677-2.565-3.0864-4.1661-0.71878-1.601-1.0782-3.4463-1.0782-5.5358-0.000005-2.1573,0.48997-4.1341,1.4699-5.9306,0.97995-1.7964,2.3352-3.3316,4.0659-4.6057,1.7306-1.274,3.7723-2.254,6.125-2.9399,2.3527-0.68582,4.9008-1.0288,7.6443-1.0288,3.527,0.000052,6.6628,0.49003,9.4073,1.4699,2.7444,0.98001,5.1614,2.2217,7.251,3.7249l-4.0165,6.0742c-1.8942-1.3059-3.8541-2.3183-5.8798-3.0371-2.0258-0.71872-4.4104-1.0781-7.1538-1.0782-2.8093,0.000046-5.1122,0.60467-6.9086,1.8139-1.7964,1.2093-2.6947,2.8587-2.6946,4.9482-0.000014,1.1106,0.21233,2.0582,0.63702,2.8427,0.42467,0.7846,1.1105,1.5034,2.0576,2.1563,0.94704,0.65301,2.1882,1.2407,3.7235,1.763,1.5352,0.52241,3.3805,1.0777,5.5358,1.6658,2.2869,0.654,4.4267,1.3728,6.4196,2.1563,1.9928,0.7836,3.7244,1.78,5.1949,2.9892,1.4704,1.2093,2.6303,2.6792,3.4797,4.4098,0.84933,1.7307,1.274,3.8381,1.274,6.3224-0.00004,2.7435-0.57177,5.1117-1.7152,7.1045-1.1435,1.9928-2.6792,3.6263-4.6072,4.9003s-4.1168,2.2211-6.5661,2.8412c-2.4494,0.62008-4.9482,0.93011-7.4962,0.93012-4.3784-0.000001-8.1517-0.63702-11.32-1.9111-3.156-1.272-5.883-2.889-8.17-4.849l4.9975-5.6824c2.0257,1.6987,4.2309,2.9887,6.6155,3.87,2.3846,0.88127,4.9486,1.3219,7.6921,1.3219z" fill="#ff7400"/>

	<path d="m144.55,79.494c3.3316,0.000006,5.9779-0.70232,7.9389-2.107,1.9609-1.4046,2.9413-3.3152,2.9414-5.7317-0.00004-1.2421-0.17998-2.3367-0.53983-3.2838-0.35991-0.94704-1.0134-1.78-1.9604-2.4987-0.94709-0.71875-2.2376-1.3722-3.8715-1.9604-1.634-0.58815-3.725-1.2082-6.273-1.8602-2.3507-0.58815-4.4572-1.2905-6.3194-2.107-1.8622-0.81644-3.4628-1.8128-4.8016-2.9892-1.3389-1.1763-2.3677-2.565-3.0864-4.1661-0.71877-1.601-1.0782-3.4463-1.0782-5.5358-0.00001-2.1573,0.48997-4.1341,1.4699-5.9306,0.97995-1.7964,2.3352-3.3316,4.0659-4.6057,1.7306-1.274,3.7723-2.254,6.125-2.9399,2.3527-0.68582,4.9008-1.0288,7.6443-1.0288,3.527,0.000052,6.6628,0.49003,9.4073,1.4699,2.7444,0.98001,5.1614,2.2217,7.251,3.7249l-4.0165,6.0742c-1.8942-1.3059-3.8541-2.3183-5.8798-3.0371-2.0258-0.71872-4.4104-1.0781-7.1538-1.0782-2.8093,0.000046-5.1122,0.60467-6.9086,1.8139-1.7964,1.2093-2.6947,2.8587-2.6946,4.9482-0.00002,1.1106,0.21232,2.0582,0.63702,2.8427,0.42467,0.7846,1.1105,1.5034,2.0576,2.1563,0.94704,0.65301,2.1882,1.2407,3.7234,1.763,1.5352,0.52241,3.3805,1.0777,5.5358,1.6658,2.2869,0.654,4.4267,1.3728,6.4196,2.1563,1.9928,0.7836,3.7244,1.78,5.1949,2.9892,1.4704,1.2093,2.6303,2.6792,3.4797,4.4098,0.84933,1.7307,1.274,3.8381,1.274,6.3224-0.00004,2.7435-0.57177,5.1117-1.7152,7.1045-1.1435,1.9928-2.6792,3.6263-4.6072,4.9003s-4.1168,2.2211-6.5661,2.8412c-2.4494,0.62008-4.9482,0.93011-7.4962,0.93012-4.3784-0.000001-8.1517-0.63702-11.32-1.9111-3.1682-1.274-5.8957-2.891-8.1826-4.851l4.9975-5.6824c2.0257,1.6987,4.2309,2.9887,6.6155,3.87,2.3846,0.88127,4.9486,1.3219,7.6921,1.3219z" fill="#ff7400"/>

	<path d="m179.13,15.992c-0.00002,1.7626-0.5882,3.232-1.7645,4.4083-1.1764,1.1764-2.7116,1.7646-4.6057,1.7645-1.8961,0.000063-3.4154-0.58811-4.5579-1.7645-1.1425-1.1763-1.7137-2.6457-1.7137-4.4083-0.00001-1.6987,0.57122-3.1362,1.7137-4.3126,1.1424-1.1763,2.6617-1.7645,4.5579-1.7645,1.8941,0.0000757,3.4293,0.58825,4.6057,1.7645,1.1763,1.1764,1.7645,2.614,1.7645,4.3126zm-10.88,69.579,0-51.647,9.017,0,0,51.647z" fill="#ff7400"/>

	<path d="m199.79,79.494c3.3316,0.000006,5.9779-0.70232,7.9389-2.107,1.9609-1.4046,2.9414-3.3152,2.9414-5.7317-0.00003-1.2421-0.17998-2.3367-0.53983-3.2838-0.35991-0.94704-1.0134-1.78-1.9604-2.4987-0.94709-0.71875-2.2376-1.3722-3.8715-1.9604-1.634-0.58815-3.725-1.2082-6.273-1.8602-2.3507-0.58815-4.4572-1.2905-6.3194-2.107-1.8622-0.81644-3.4628-1.8128-4.8016-2.9892-1.3388-1.1763-2.3677-2.565-3.0864-4.1661-0.71878-1.601-1.0782-3.4463-1.0782-5.5358,0-2.1573,0.48997-4.1341,1.4699-5.9306,0.97995-1.7964,2.3352-3.3316,4.0659-4.6057,1.7306-1.274,3.7723-2.254,6.125-2.9399,2.3527-0.68582,4.9008-1.0288,7.6443-1.0288,3.527,0.000052,6.6628,0.49003,9.4073,1.4699,2.7444,0.98001,5.1614,2.2217,7.251,3.7249l-4.0165,6.0742c-1.8942-1.3059-3.8541-2.3183-5.8798-3.0371-2.0258-0.71872-4.4104-1.0781-7.1538-1.0782-2.8093,0.000046-5.1122,0.60467-6.9086,1.8139-1.7964,1.2093-2.6946,2.8587-2.6946,4.9482-0.00001,1.1106,0.21233,2.0582,0.63702,2.8427,0.42467,0.7846,1.1105,1.5034,2.0576,2.1563,0.94704,0.65301,2.1882,1.2407,3.7234,1.763,1.5352,0.52241,3.3805,1.0777,5.5358,1.6658,2.2869,0.654,4.4267,1.3728,6.4196,2.1563,1.9928,0.7836,3.7244,1.78,5.1949,2.9892,1.4704,1.2093,2.6303,2.6792,3.4797,4.4098,0.84932,1.7307,1.274,3.8381,1.274,6.3224-0.00004,2.7435-0.57177,5.1117-1.7152,7.1045-1.1435,1.9928-2.6792,3.6263-4.6072,4.9003-1.9281,1.274-4.1168,2.2211-6.5661,2.8412-2.4494,0.62008-4.9482,0.93011-7.4962,0.93012-4.3784-0.000001-8.1517-0.63702-11.32-1.9111-3.1682-1.274-5.8957-2.891-8.1826-4.851l4.9975-5.6824c2.0257,1.6987,4.2309,2.9887,6.6155,3.87,2.3846,0.88127,4.9486,1.3219,7.6921,1.3219z" fill="#ff7400"/>

	<path d="m255.43,83.221c-1.5672,1.1744-3.3472,2.0556-5.3399,2.6438-1.9928,0.58817-4.0669,0.88226-6.2222,0.88226-4.835-0.000001-8.3631-1.3717-10.584-4.1152-2.2211-2.7435-3.3317-6.3692-3.3317-10.877v-30.969h-8.2334v-6.8607h8.2334v-11.661l9.014-1.0797v12.74h13.034l-1.0767,6.8607h-11.957v30.87c-0.00002,2.6139,0.45756,4.5414,1.3727,5.7826s2.5162,1.8617,4.8031,1.8617c2.1553,0.000006,4.4412-0.75166,6.8577-2.255z" fill="#ff7400"/>

	<path d="m296.77,73.91c-0.00004,2.0895,0.30999,3.5754,0.93011,4.4577,0.62004,0.88227,1.584,1.5846,2.892,2.107l-2.1563,6.2715c-2.287-0.32699-4.2469-1.0458-5.8798-2.1563-1.633-1.1106-2.8422-2.8093-3.6277-5.0962-1.8284,2.4843-4.0654,4.3141-6.7112,5.4895s-5.5368,1.763-8.6731,1.763c-5.2278-0.000001-9.3276-1.4535-12.299-4.3605-2.9718-2.907-4.4577-6.778-4.4577-11.613-0.00001-5.3574,2.0741-9.4736,6.2222-12.349,4.1481-2.8751,10.175-4.3126,18.08-4.3126h6.6633v-4.0165c-0.00003-3.6586-0.9147-6.2391-2.744-7.7415-1.8294-1.5023-4.6381-2.2535-8.4264-2.2535-1.6988,0.000045-3.708,0.21239-6.0278,0.63702-2.3198,0.42473-4.8186,1.0937-7.4962,2.0068l-2.3537-6.6633c3.202-1.1763,6.2401-2.0257,9.1142-2.5481,2.8741-0.52233,5.5852-0.78352,8.1333-0.78357,6.5995,0.000052,11.386,1.4864,14.358,4.4592,2.9727,2.9728,4.4591,7.105,4.4592,12.397zm-20.777,6.0742c2.4823,0.000006,4.6874-0.62057,6.6155-1.8617,1.928-1.2411,3.6427-3.0052,5.144-5.2921v-12.74h-6.1728c-5.5528,0.000026-9.4238,0.93114-11.613,2.7933s-3.2838,4.3615-3.2838,7.4977c-0.00001,3.2021,0.7352,5.6031,2.2057,7.2032,1.4704,1.6,3.8386,2.4001,7.1045,2.4001z" fill="#ff7400"/>

	<path d="m310.96,85.571-9.017,0,0-51.647,7.743,0,0.68488,7.0581c2.0915-2.6796,4.5907-4.7218,7.4977-6.1265,2.907-1.4046,5.8957-2.1069,8.9662-2.107,5.0304,0.000052,8.6237,1.3394,10.78,4.018,2.1563,2.6787,3.2344,6.4356,3.2345,11.271v37.534h-9.014v-36.947c-0.00004-3.1342-0.60467-5.3877-1.8139-6.7605-1.2093-1.3727-3.2834-2.0591-6.2222-2.0591-1.3738,0.000046-2.6977,0.24528-3.9717,0.73572-1.2741,0.49052-2.4499,1.1275-3.5276,1.9111-1.0777,0.78361-2.0736,1.6818-2.9877,2.6946-0.91419,1.0129-1.6983,2.0098-2.3522,2.9907z" fill="#ff7400"/>

	<path d="m365.34,79.102c1.8941,0.000006,3.7234-0.31003,5.488-0.93012,1.7645-0.62007,3.6915-1.7147,5.7811-3.2838l4.3126,6.1758c-2.4165,1.9599-4.9477,3.397-7.5934,4.3111-2.6458,0.91416-5.3415,1.3712-8.0869,1.3712-3.8541-0.000001-7.2186-0.63702-10.094-1.9111-2.8751-1.274-5.2762-3.0705-7.2032-5.3893s-3.3641-5.1281-4.3111-8.4279c-0.94706-3.2997-1.4206-6.9743-1.4206-11.024-0.00001-3.9218,0.48997-7.5321,1.4699-10.831,0.97995-3.2987,2.4334-6.1733,4.3605-8.6237,1.927-2.4504,4.3281-4.3614,7.2032-5.7332,2.8751-1.3717,6.2396-2.0576,10.094-2.0576,2.7435,0.000052,5.4221,0.42474,8.0361,1.274,2.6138,0.84942,5.129,2.287,7.5456,4.3126l-4.4083,5.8798c-2.0916-1.5691-4.0031-2.6313-5.7347-3.1866-1.7317-0.55523-3.5445-0.83287-5.4386-0.83292-4.1811,0.000045-7.4639,1.617-9.8484,4.851-2.3846,3.234-3.5769,8.2165-3.5769,14.948-0.00001,6.7929,1.1923,11.676,3.5769,14.649,2.3846,2.9728,5.6674,4.4592,9.8484,4.4592z" fill="#ff7400"/>

	<path d="m386.87,62.836c0.39276,5.7482,1.8303,9.9457,4.3126,12.592,2.4823,2.6468,5.6833,3.9702,9.6032,3.9702,2.3527,0.000007,4.5414-0.34343,6.5661-1.0303,2.0247-0.68686,4.1476-1.9445,6.3687-3.7728l4.1182,5.9785c-2.4185,1.8941-5.0648,3.3965-7.9389,4.507-2.8741,1.1106-5.977,1.6658-9.3086,1.6658-3.8561-0.000001-7.2376-0.65347-10.145-1.9604-2.907-1.3069-5.3404-3.1363-7.3004-5.488-1.9599-2.3517-3.4299-5.1769-4.4098-8.4757-0.97997-3.2987-1.47-6.9738-1.4699-11.025-0.00001-3.9198,0.48997-7.5296,1.4699-10.829,0.97995-3.2997,2.417-6.1419,4.3111-8.5266,1.8941-2.3846,4.1805-4.2627,6.8592-5.6345,2.6787-1.3717,5.7496-2.0576,9.2129-2.0576,6.7949,0.000052,11.973,2.2705,15.534,6.8114,3.5609,4.541,5.3414,10.764,5.3414,18.67-0.00005,0.91319-0.0165,1.7621-0.0494,2.5466-0.0329,0.78459-0.0823,1.471-0.14804,2.0591zm12.25-22.933c-3.5271,0.000046-6.3688,1.3229-8.5251,3.9687s-3.398,6.7461-3.7249,12.301h24.207c-0.13164-5.3573-1.1445-9.4083-3.0386-12.153-1.8942-2.7444-4.8669-4.1167-8.9183-4.1167z" fill="#ff7400"/>
</svg>

